# xmcd
#
# Track frame offsets:
#	150
#	10450
#	26300
#	31637
#	48325
#	76250
#	110825
#	115700
#	137200
#	142000
#	175350
#	189925
#	196750
#	219100
#	243550
#	257475
#	286825
#	292050
#
# Disc length: 4704 seconds
#
# Revision: 2
# Processed by: cddbd v1.5.2PL0 Copyright (c) Steve Scherf et al.
# Submitted via: audiograbber 1.83.01
#
DISCID=f9125e12
DTITLE=Sarband - Alla Turca Oriental Obsession
DYEAR=1998
DGENRE=Folk
TTITLE0=W. A. Mozart - Rondo alla turca (1)
TTITLE1=Demetrius Cantemir - Elci Pesrev
TTITLE2=G. B. Dona - "Izanum"
TTITLE3=Charles Blainville - Chanson Turque
TTITLE4=Wojciech Bobowsy - Ali Ufki - Acem Ilahi
TTITLE5=G. B. Toderini - Trad. - Concerto turco - Hicaz Son Yürük Semaï
TTITLE6=W. A. Mozart - Rondo alla Turca (2)
TTITLE7=G. B. Dona - "Busis derdim"
TTITLE8=W. A. Mozart - Rondo alla Turca (3)
TTITLE9=W. Bobowsky - Ali Ufki - Hüseyni Ilahi
TTITLE10=Heinrich Isaac - Allahoy
TTITLE11=Jean Chardin - Perdeh
TTITLE12=Trad. - "Der Deste"
TTITLE13=W. Bobowsky - Ali Ufki - Psalm 6
TTITLE14=G. B. Dona - "Hasta ghiringium"
TTITLE15=Sah Murad - Hüseyni Pesrev
TTITLE16=W. A. Mozart - Rondo alla Turca (4)
TTITLE17=W. Bobowsky - Ali Utku - Psalm 2
EXTD=
EXTT0=
EXTT1=
EXTT2=
EXTT3=
EXTT4=
EXTT5=
EXTT6=
EXTT7=
EXTT8=
EXTT9=
EXTT10=
EXTT11=
EXTT12=
EXTT13=
EXTT14=
EXTT15=
EXTT16=
EXTT17=
PLAYORDER=
